<svg width="243" height="83" viewBox="0 0 243 83" fill="none" xmlns="http://www.w3.org/2000/svg">
<path d="M91.0283 26.9902L92.1187 26.7734C92.2224 27.548 92.4239 28.2858 92.7233 28.9868C93.0217 29.6896 93.4179 30.301 93.9119 30.8211C94.405 31.3411 95.0027 31.7584 95.7051 32.073C96.4065 32.3876 97.2248 32.5449 98.1601 32.5449C98.8352 32.5449 99.4588 32.448 100.031 32.2544C100.602 32.0607 101.109 31.7884 101.551 31.4375C101.993 31.0865 102.336 30.657 102.583 30.1487C102.83 29.6405 102.954 29.0595 102.954 28.4058C102.954 27.3412 102.668 26.4761 102.096 25.8106C101.524 25.1451 100.817 24.5705 99.9724 24.0868C99.1281 23.6031 98.2124 23.1371 97.2253 22.6889C96.2373 22.2416 95.3211 21.7093 94.4769 21.0919C93.6326 20.4746 92.9248 19.7059 92.3534 18.7858C91.7812 17.8666 91.495 16.6811 91.495 15.2291C91.495 14.0435 91.7097 12.9848 92.1392 12.0529C92.5677 11.121 93.1586 10.3341 93.9119 9.6922C94.6652 9.05123 95.5745 8.56119 96.6399 8.22206C97.7052 7.88385 98.8615 7.71429 100.109 7.71338C100.368 7.71429 100.751 7.73884 101.258 7.78702C101.765 7.83521 102.297 7.88976 102.856 7.95067C103.415 8.01068 103.954 8.07114 104.474 8.13206C104.994 8.19206 105.409 8.23434 105.72 8.25889C105.72 9.10624 105.753 9.96541 105.819 10.8364C105.883 11.7074 105.981 12.5784 106.111 13.4494L105.019 13.6308C104.942 13.0507 104.786 12.482 104.552 11.9247C104.318 11.3683 104.006 10.8723 103.616 10.4368C103.227 10.0013 102.765 9.65629 102.232 9.40172C101.7 9.14806 101.096 9.02123 100.42 9.02123C98.8615 9.02123 97.6729 9.42036 96.8541 10.2186C96.0362 11.0178 95.6273 12.1434 95.6273 13.5953C95.6273 14.5881 95.9129 15.3987 96.4843 16.0269C97.0556 16.657 97.7766 17.2075 98.6473 17.6784C99.518 18.1512 100.46 18.6053 101.474 19.0408C102.486 19.4763 103.428 20.0087 104.298 20.6378C105.169 21.267 105.89 22.0416 106.461 22.9617C107.033 23.8808 107.318 25.0664 107.318 26.5184C107.318 27.7776 107.059 28.8791 106.539 29.8228C106.02 30.7665 105.331 31.5589 104.474 32.1998C103.617 32.8417 102.616 33.3258 101.474 33.6522C100.33 33.9786 99.1345 34.1418 97.8872 34.1418C96.7954 34.1418 95.7301 33.9845 94.6911 33.67C93.6521 33.3554 92.6518 32.9681 91.6902 32.508C91.5865 31.5889 91.4759 30.6692 91.3586 29.7491C91.2421 28.83 91.132 27.9103 91.0283 26.9902Z" fill="#00A651"/>
<path d="M109.521 12.9856C110.196 12.9856 110.952 13.0051 111.787 13.0442C112.622 13.0833 113.546 13.1029 114.562 13.1029C115.512 13.1029 116.384 13.0833 117.176 13.0442C117.969 13.0051 118.682 12.9856 119.316 12.9856V13.8707H118.937C118.619 13.8707 118.307 13.8857 118.001 13.9157C117.694 13.9448 117.425 14.0234 117.193 14.1516C116.96 14.2798 116.77 14.4916 116.622 14.7871C116.474 15.0817 116.4 15.4949 116.4 16.0268V26.2155C116.4 27.1601 116.5 28.0211 116.701 28.7985C116.902 29.5767 117.24 30.2464 117.715 30.8073C118.191 31.3683 118.809 31.801 119.57 32.1056C120.331 32.4111 121.283 32.5638 122.423 32.5638C124.516 32.5638 126.043 31.9833 127.005 30.8223C127.966 29.6604 128.447 28.0852 128.447 26.0969V16.0268C128.447 15.4949 128.378 15.0817 128.241 14.7871C128.104 14.4916 127.924 14.2798 127.702 14.1516C127.48 14.0234 127.237 13.9448 126.973 13.9157C126.709 13.8857 126.439 13.8707 126.164 13.8707H125.531V12.9856C126.165 12.9856 126.804 13.0051 127.448 13.0442C128.093 13.0833 128.733 13.1029 129.367 13.1029C129.979 13.1029 130.592 13.0833 131.205 13.0442C131.818 13.0051 132.432 12.9856 133.045 12.9856V13.8707H132.379C132.167 13.8707 131.939 13.8857 131.696 13.9157C131.454 13.9448 131.232 14.0234 131.03 14.1516C130.83 14.2798 130.667 14.4916 130.539 14.7871C130.413 15.0817 130.35 15.4949 130.35 16.0268V25.4477C130.35 27.1206 130.128 28.5085 129.684 29.6113C129.24 30.7141 128.632 31.5951 127.86 32.2543C127.089 32.9134 126.185 33.3757 125.15 33.6412C124.114 33.9076 123.004 34.0408 121.822 34.0408C120.3 34.0408 118.952 33.9076 117.78 33.6412C116.606 33.3757 115.612 32.948 114.799 32.3579C113.985 31.767 113.372 31.0037 112.959 30.0682C112.547 29.1335 112.341 28.0066 112.341 26.6874V16.0268C112.341 15.4949 112.273 15.0817 112.135 14.7871C111.998 14.4916 111.818 14.2798 111.596 14.1516C111.374 14.0234 111.115 13.9448 110.82 13.9157C110.524 13.8857 110.218 13.8707 109.901 13.8707H109.521V12.9856Z" fill="#00A651"/>
<path d="M147.215 12.5425C148.144 12.5425 148.937 12.6016 149.593 12.7198C150.248 12.838 150.861 12.9757 151.432 13.133C152.003 13.2912 152.574 13.4535 153.144 13.6199C153.715 13.7871 154.37 13.9203 155.109 14.0194C155.088 14.8459 155.099 15.6678 155.141 16.4851C155.183 17.3016 155.258 18.1235 155.363 18.9508L154.412 19.0681C154.179 18.3599 153.899 17.6857 153.571 17.0456C153.244 16.4065 152.816 15.8505 152.289 15.3778C151.759 14.905 151.093 14.5309 150.291 14.2554C149.487 13.9799 148.494 13.8422 147.31 13.8422C146.021 13.8422 144.88 14.0685 143.886 14.5213C142.893 14.9741 142.063 15.5991 141.397 16.3965C140.731 17.1938 140.229 18.1385 139.892 19.2304C139.553 20.3232 139.384 21.5193 139.384 22.8185C139.384 24.0595 139.553 25.2705 139.892 26.4515C140.229 27.6326 140.758 28.6909 141.476 29.6264C142.195 30.561 143.099 31.3138 144.188 31.8848C145.276 32.4558 146.571 32.7412 148.072 32.7412C149.783 32.7412 151.183 32.2885 152.272 31.3829C153.36 30.4774 154.116 29.2864 154.539 27.8099L155.426 27.9271C155.215 28.7545 155.051 29.5518 154.935 30.3192C154.818 31.0874 154.718 31.8848 154.634 32.7112C153.683 33.0858 152.599 33.4009 151.384 33.6563C150.168 33.9127 148.832 34.0409 147.374 34.0409C145.598 34.0409 143.949 33.8145 142.427 33.3618C140.906 32.909 139.591 32.2248 138.481 31.3093C137.371 30.3937 136.504 29.2418 135.881 27.8535C135.258 26.4661 134.946 24.8468 134.946 22.9958C134.946 21.342 135.279 19.8655 135.944 18.5662C136.61 17.267 137.508 16.1746 138.639 15.2891C139.77 14.4027 141.075 13.7235 142.554 13.2516C144.034 12.7789 145.587 12.5425 147.215 12.5425Z" fill="#00A651"/>
<path d="M170.138 12.5425C171.068 12.5425 171.86 12.6016 172.515 12.7198C173.17 12.838 173.783 12.9757 174.355 13.133C174.925 13.2912 175.496 13.4535 176.066 13.6199C176.637 13.7871 177.292 13.9203 178.033 14.0194C178.011 14.8459 178.021 15.6678 178.064 16.4851C178.106 17.3016 178.18 18.1235 178.286 18.9508L177.335 19.0681C177.102 18.3599 176.822 17.6857 176.495 17.0456C176.167 16.4065 175.739 15.8505 175.21 15.3778C174.682 14.905 174.016 14.5309 173.213 14.2554C172.409 13.9799 171.416 13.8422 170.233 13.8422C168.943 13.8422 167.802 14.0685 166.81 14.5213C165.816 14.9741 164.986 15.5991 164.32 16.3965C163.654 17.1938 163.152 18.1385 162.814 19.2304C162.476 20.3232 162.307 21.5193 162.307 22.8185C162.307 24.0595 162.476 25.2705 162.814 26.4515C163.152 27.6326 163.681 28.6909 164.399 29.6264C165.118 30.561 166.022 31.3138 167.11 31.8848C168.198 32.4558 169.492 32.7412 170.994 32.7412C172.706 32.7412 174.106 32.2885 175.194 31.3829C176.283 30.4774 177.039 29.2864 177.462 27.8099L178.349 27.9271C178.137 28.7545 177.973 29.5518 177.858 30.3192C177.741 31.0874 177.641 31.8848 177.556 32.7112C176.606 33.0858 175.522 33.4009 174.307 33.6563C173.092 33.9127 171.755 34.0409 170.296 34.0409C168.521 34.0409 166.873 33.8145 165.351 33.3618C163.829 32.909 162.513 32.2248 161.404 31.3093C160.294 30.3937 159.428 29.2418 158.804 27.8535C158.18 26.4661 157.868 24.8468 157.868 22.9958C157.868 21.342 158.201 19.8655 158.867 18.5662C159.533 17.267 160.431 16.1746 161.562 15.2891C162.692 14.4027 163.997 13.7235 165.478 13.2516C166.957 12.7789 168.51 12.5425 170.138 12.5425Z" fill="#00A651"/>
<path d="M180.093 13.8707V12.9856C180.579 12.9856 181.139 12.9906 181.773 13.0006C182.407 13.0106 183.073 13.0251 183.771 13.0442C184.467 13.0642 185.175 13.0792 185.894 13.0892C186.613 13.0983 187.31 13.1029 187.986 13.1029C188.641 13.1029 189.333 13.0983 190.063 13.0892C190.792 13.0792 191.511 13.0642 192.219 13.0442C192.927 13.0251 193.619 13.0106 194.296 13.0006C194.972 12.9906 195.575 12.9856 196.103 12.9856C196.081 13.3002 196.065 13.6543 196.055 14.048C196.044 14.4426 196.044 14.8412 196.055 15.244C196.065 15.6477 196.081 16.0463 196.103 16.44C196.124 16.8346 196.145 17.1892 196.166 17.5038L195.215 17.7397C195.173 17.2669 195.104 16.8191 195.009 16.3964C194.914 15.9727 194.734 15.6036 194.47 15.289C194.206 14.9735 193.825 14.7271 193.329 14.5498C192.832 14.3725 192.171 14.2839 191.347 14.2839H186.941V22.0219H190.713C191.178 22.0219 191.563 21.9628 191.87 21.8446C192.177 21.7264 192.425 21.5541 192.615 21.3278C192.805 21.1014 192.943 20.8259 193.027 20.5013C193.112 20.1758 193.175 19.8163 193.218 19.4226H194.169C194.106 20.5645 194.074 21.7164 194.074 22.8784C194.074 24.0003 194.106 25.1222 194.169 26.2441L193.218 26.4214C193.175 25.9687 193.123 25.565 193.06 25.2104C192.996 24.8567 192.885 24.5517 192.727 24.2953C192.568 24.0398 192.335 23.843 192.03 23.7048C191.722 23.5675 191.294 23.4984 190.745 23.4975H186.941V30.3791C186.941 30.851 187.046 31.2201 187.257 31.4865C187.468 31.752 187.754 31.9438 188.113 32.062C188.472 32.1802 188.884 32.2493 189.349 32.2693C189.814 32.2884 190.301 32.2979 190.808 32.2979C191.76 32.2979 192.584 32.2684 193.281 32.2093C193.979 32.1502 194.581 32.0024 195.088 31.766C195.595 31.5306 196.024 31.1714 196.372 30.6887C196.72 30.2068 197.011 29.5422 197.244 28.6948L198.132 28.9021C197.92 29.6895 197.725 30.4723 197.546 31.2505C197.365 32.0279 197.202 32.8102 197.054 33.5976C196.547 33.5976 195.949 33.5926 195.262 33.5826C194.576 33.5735 193.852 33.5589 193.091 33.5389C192.33 33.5189 191.558 33.5039 190.777 33.4939C189.994 33.4839 189.244 33.4789 188.525 33.4789C187.806 33.4789 187.051 33.4839 186.258 33.4939C185.466 33.5039 184.689 33.5189 183.929 33.5389C183.167 33.5589 182.449 33.5735 181.773 33.5826C181.096 33.5926 180.536 33.5976 180.093 33.5976V32.7111H180.536C180.832 32.7111 181.117 32.6966 181.392 32.6675C181.667 32.6375 181.915 32.5638 182.137 32.4466C182.359 32.3284 182.539 32.1561 182.676 31.9297C182.813 31.7033 182.882 31.4028 182.882 31.0282V15.5549C182.882 15.1613 182.813 14.8558 182.676 14.6385C182.539 14.4221 182.359 14.2548 182.137 14.1366C181.915 14.0184 181.667 13.9448 181.392 13.9157C181.117 13.8857 180.832 13.8707 180.536 13.8707H180.093Z" fill="#00A651"/>
<path d="M200.192 28.2231L201.079 28.0458C201.164 28.6759 201.328 29.2764 201.571 29.8473C201.814 30.4183 202.136 30.9152 202.538 31.3379C202.939 31.7616 203.426 32.1016 203.997 32.358C204.568 32.6135 205.233 32.7412 205.994 32.7412C206.543 32.7412 207.05 32.6626 207.515 32.5053C207.98 32.348 208.392 32.1266 208.752 31.8412C209.111 31.5557 209.391 31.2061 209.592 30.7924C209.793 30.3787 209.894 29.9064 209.894 29.3755C209.893 28.509 209.66 27.8049 209.196 27.263C208.731 26.722 208.154 26.2547 207.467 25.861C206.781 25.4674 206.036 25.0882 205.233 24.7237C204.429 24.36 203.684 23.9268 202.998 23.424C202.31 22.9221 201.734 22.2971 201.27 21.5488C200.805 20.8015 200.572 19.8368 200.572 18.6549C200.572 17.6902 200.746 16.8293 201.096 16.0719C201.444 15.3137 201.925 14.6736 202.538 14.1517C203.151 13.6308 203.89 13.2321 204.757 12.9557C205.624 12.6802 206.565 12.5425 207.579 12.5425C207.79 12.5425 208.102 12.562 208.514 12.6011C208.926 12.6411 209.36 12.6857 209.815 12.7348C210.269 12.7839 210.707 12.833 211.13 12.8821C211.552 12.9312 211.89 12.9657 212.144 12.9857C212.144 13.6749 212.171 14.3736 212.223 15.0818C212.276 15.791 212.355 16.4997 212.461 17.2079L211.574 17.3552C211.51 16.8834 211.383 16.421 211.193 15.9683C211.003 15.5155 210.749 15.1118 210.433 14.7572C210.115 14.4027 209.74 14.1222 209.307 13.9158C208.873 13.7085 208.382 13.6049 207.833 13.6049C206.565 13.6049 205.598 13.9299 204.932 14.58C204.266 15.23 203.933 16.1456 203.933 17.3266C203.933 18.1339 204.165 18.7935 204.63 19.3054C205.095 19.8173 205.682 20.265 206.391 20.6487C207.099 21.0324 207.865 21.4015 208.689 21.7561C209.513 22.1107 210.279 22.5439 210.987 23.0558C211.695 23.5676 212.282 24.1972 212.747 24.9446C213.211 25.6928 213.444 26.6579 213.445 27.8399C213.445 28.8636 213.233 29.7591 212.81 30.5265C212.387 31.2947 211.827 31.9394 211.13 32.4603C210.432 32.9822 209.619 33.3759 208.689 33.6413C207.758 33.9077 206.786 34.0409 205.773 34.0409C204.885 34.0409 204.018 33.9127 203.173 33.6563C202.327 33.4009 201.513 33.0858 200.731 32.7112C200.647 31.9639 200.557 31.2161 200.461 30.4678C200.366 29.7196 200.276 28.9713 200.192 28.2231Z" fill="#00A651"/>
<path d="M216.077 28.2231L216.964 28.0458C217.049 28.6759 217.213 29.2764 217.455 29.8473C217.698 30.4183 218.021 30.9152 218.423 31.3379C218.824 31.7616 219.311 32.1016 219.882 32.358C220.452 32.6135 221.118 32.7412 221.878 32.7412C222.428 32.7412 222.935 32.6626 223.4 32.5053C223.865 32.348 224.277 32.1266 224.636 31.8412C224.996 31.5557 225.276 31.2061 225.477 30.7924C225.678 30.3787 225.779 29.9064 225.779 29.3755C225.779 28.509 225.546 27.8049 225.081 27.263C224.615 26.722 224.04 26.2547 223.354 25.861C222.666 25.4674 221.921 25.0882 221.118 24.7237C220.315 24.36 219.57 23.9268 218.883 23.424C218.196 22.9221 217.62 22.2971 217.155 21.5488C216.69 20.8015 216.458 19.8368 216.458 18.6549C216.458 17.6902 216.632 16.8293 216.981 16.0719C217.329 15.3137 217.81 14.6736 218.423 14.1517C219.035 13.6308 219.775 13.2321 220.642 12.9557C221.509 12.6802 222.45 12.5425 223.464 12.5425C223.675 12.5425 223.987 12.562 224.399 12.6011C224.811 12.6411 225.245 12.6857 225.699 12.7348C226.153 12.7839 226.592 12.833 227.015 12.8821C227.437 12.9312 227.775 12.9657 228.029 12.9857C228.029 13.6749 228.055 14.3736 228.108 15.0818C228.161 15.791 228.24 16.4997 228.347 17.2079L227.459 17.3552C227.395 16.8834 227.268 16.421 227.078 15.9683C226.888 15.5155 226.634 15.1118 226.318 14.7572C226 14.4027 225.625 14.1222 225.192 13.9158C224.759 13.7085 224.267 13.6049 223.718 13.6049C222.45 13.6049 221.483 13.9299 220.817 14.58C220.151 15.23 219.818 16.1456 219.818 17.3266C219.818 18.1339 220.05 18.7935 220.515 19.3054C220.98 19.8173 221.567 20.265 222.275 20.6487C222.983 21.0324 223.749 21.4015 224.574 21.7561C225.398 22.1107 226.164 22.5439 226.872 23.0558C227.58 23.5676 228.166 24.1972 228.632 24.9446C229.097 25.6928 229.329 26.6579 229.329 27.8399C229.329 28.8636 229.118 29.7591 228.695 30.5265C228.272 31.2947 227.712 31.9394 227.015 32.4603C226.317 32.9822 225.503 33.3759 224.574 33.6413C223.644 33.9077 222.672 34.0409 221.657 34.0409C220.769 34.0409 219.903 33.9127 219.058 33.6563C218.211 33.4009 217.398 33.0858 216.616 32.7112C216.532 31.9639 216.442 31.2161 216.346 30.4678C216.251 29.7196 216.162 28.9713 216.077 28.2231Z" fill="#00A651"/>
<path fill-rule="evenodd" clip-rule="evenodd" d="M90.1455 35.9077C90.9734 35.9077 91.8959 35.9314 92.9131 35.9786C93.9293 36.025 94.9642 36.0482 96.0177 36.0482C97.0967 36.0482 98.1511 36.025 99.181 35.9786C100.21 35.9314 101.163 35.9077 102.041 35.9077C103.623 35.9077 104.965 36.0541 106.07 36.3468C107.174 36.6387 108.072 37.0301 108.762 37.5211C109.452 38.012 109.954 38.5907 110.268 39.2571C110.581 39.9236 110.738 40.6423 110.738 41.4132C110.738 42.3024 110.538 43.0739 110.137 43.7276C109.734 44.3822 109.207 44.9377 108.555 45.3941C107.902 45.8496 107.168 46.2119 106.352 46.481C105.536 46.7492 104.714 46.9538 103.886 47.0947V47.1643C104.915 47.1643 105.926 47.287 106.917 47.5325C107.908 47.778 108.805 48.158 109.608 48.6726C110.412 49.1872 111.058 49.8418 111.548 50.6364C112.037 51.431 112.282 52.3661 112.282 53.4417C112.282 54.4 112.05 55.3 111.586 56.1419C111.121 56.9829 110.487 57.7194 109.685 58.3512C108.881 58.9822 107.939 59.4786 106.861 59.8405C105.781 60.2032 104.627 60.3846 103.398 60.3846C102.443 60.3846 101.408 60.361 100.292 60.3137C99.1746 60.2673 98.0138 60.2442 96.8092 60.2442C96.2315 60.2442 95.6351 60.2501 95.0201 60.2619C94.4051 60.2737 93.8028 60.291 93.2133 60.3137C92.6238 60.3373 92.0656 60.3551 91.5388 60.3669C91.0112 60.3787 90.5467 60.3846 90.1455 60.3846V59.3332H90.6723C91.0234 59.3332 91.3623 59.3154 91.689 59.28C92.0147 59.2445 92.3094 59.1568 92.5733 59.0168C92.8371 58.8767 93.0504 58.6722 93.2133 58.4031C93.3761 58.1349 93.458 57.7785 93.4589 57.3339V38.9585C93.458 38.4911 93.3761 38.1288 93.2133 37.8715C93.0504 37.6142 92.8371 37.4156 92.5733 37.2756C92.3094 37.1356 92.0147 37.0478 91.689 37.0124C91.3623 36.9778 91.0234 36.9605 90.6723 36.9605H90.1455V35.9077ZM100.121 46.6378C101.728 46.6378 103.058 46.2869 104.113 45.585C105.166 44.884 105.693 43.7153 105.693 42.0788C105.693 41.0505 105.543 40.2204 105.242 39.5885C104.94 38.9576 104.551 38.4611 104.075 38.0993C103.598 37.7365 103.052 37.4911 102.437 37.3629C101.822 37.2338 101.188 37.1692 100.536 37.1692H98.2776V46.6378H100.121ZM98.2762 47.8993V56.1406C98.2762 56.7488 98.314 57.2457 98.3895 57.6312C98.4641 58.0167 98.6269 58.3203 98.878 58.5422C99.1291 58.7649 99.4744 58.9172 99.9138 58.999C100.352 59.0809 100.936 59.1218 101.665 59.1218C102.467 59.1218 103.207 58.9813 103.885 58.7004C104.563 58.4203 105.153 58.0289 105.655 57.5262C106.156 57.0234 106.545 56.4329 106.822 55.7546C107.098 55.0773 107.237 54.3527 107.237 53.5808C107.236 52.5989 107.072 51.7515 106.747 51.0387C106.42 50.3259 105.962 49.7354 105.373 49.2672C104.783 48.7999 104.093 48.4553 103.302 48.2334C102.512 48.0116 101.639 47.9002 100.685 47.8993H98.2762Z" fill="#00A651"/>
<path d="M115.144 39.7727C115.82 39.7727 116.575 39.7923 117.41 39.8313C118.245 39.8704 119.169 39.89 120.185 39.89C121.135 39.89 122.007 39.8704 122.799 39.8313C123.592 39.7923 124.305 39.7727 124.939 39.7727V40.6578H124.56C124.242 40.6578 123.93 40.6728 123.624 40.7028C123.317 40.7319 123.048 40.8105 122.816 40.9387C122.583 41.0669 122.393 41.2788 122.245 41.5742C122.097 41.8688 122.023 42.282 122.023 42.8139V53.0026C122.023 53.9473 122.123 54.8082 122.324 55.5856C122.525 56.3639 122.863 57.0335 123.338 57.5944C123.814 58.1554 124.432 58.5882 125.193 58.8927C125.954 59.1982 126.906 59.351 128.047 59.351C130.139 59.351 131.666 58.77 132.628 57.6081C133.589 56.447 134.07 54.8723 134.07 52.884V42.8139C134.07 42.282 134.002 41.8688 133.864 41.5742C133.727 41.2788 133.547 41.0669 133.325 40.9387C133.103 40.8105 132.86 40.7319 132.596 40.7028C132.332 40.6728 132.062 40.6578 131.787 40.6578H131.154V39.7727C131.788 39.7727 132.427 39.7923 133.071 39.8313C133.716 39.8704 134.356 39.89 134.99 39.89C135.602 39.89 136.215 39.8704 136.828 39.8313C137.441 39.7923 138.055 39.7727 138.668 39.7727V40.6578H138.002C137.79 40.6578 137.562 40.6728 137.319 40.7028C137.077 40.7319 136.855 40.8105 136.655 40.9387C136.454 41.0669 136.29 41.2788 136.162 41.5742C136.036 41.8688 135.973 42.282 135.973 42.8139V52.2335C135.973 53.9073 135.751 55.2956 135.307 56.3984C134.863 57.5012 134.255 58.3822 133.483 59.0414C132.712 59.7005 131.808 60.1629 130.773 60.4283C129.738 60.6947 128.628 60.8279 127.445 60.8279C125.923 60.8279 124.575 60.6947 123.403 60.4283C122.229 60.1629 121.235 59.7346 120.422 59.1437C119.608 58.5536 118.995 57.7908 118.583 56.8553C118.17 55.9206 117.964 54.7937 117.964 53.4745V42.8139C117.964 42.282 117.896 41.8688 117.758 41.5742C117.621 41.2788 117.441 41.0669 117.219 40.9387C116.997 40.8105 116.738 40.7319 116.443 40.7028C116.147 40.6728 115.841 40.6578 115.524 40.6578H115.144V39.7727Z" fill="#00A651"/>
<path d="M140.571 55.0102L141.458 54.8329C141.543 55.463 141.707 56.0635 141.95 56.6344C142.193 57.2054 142.515 57.7023 142.917 58.125C143.318 58.5487 143.804 58.8883 144.375 59.1438C144.946 59.4002 145.612 59.5284 146.373 59.5284C146.922 59.5284 147.429 59.4497 147.894 59.2924C148.359 59.1351 148.771 58.9138 149.131 58.6283C149.49 58.3428 149.77 57.9932 149.971 57.5795C150.172 57.1659 150.273 56.6931 150.273 56.1612C150.272 55.2957 150.039 54.592 149.575 54.0501C149.11 53.5091 148.533 53.0418 147.846 52.6482C147.159 52.2545 146.415 51.8753 145.612 51.5108C144.808 51.1462 144.063 50.713 143.377 50.2111C142.689 49.7092 142.113 49.0842 141.649 48.3359C141.184 47.5877 140.951 46.623 140.951 45.442C140.951 44.4774 141.125 43.6159 141.475 42.8577C141.823 42.1003 142.304 41.4607 142.917 40.9388C143.529 40.417 144.269 40.0183 145.136 39.7428C146.002 39.4673 146.943 39.3296 147.958 39.3296C148.169 39.3296 148.481 39.3491 148.893 39.3882C149.305 39.4282 149.738 39.4728 150.192 39.5219C150.647 39.571 151.086 39.6201 151.509 39.6692C151.931 39.7183 152.269 39.7528 152.523 39.7728C152.523 40.462 152.549 41.1607 152.602 41.8689C152.655 42.5781 152.734 43.2868 152.84 43.995L151.953 44.1423C151.889 43.6705 151.762 43.2081 151.572 42.7554C151.382 42.3026 151.128 41.8989 150.812 41.5443C150.494 41.1898 150.119 40.9093 149.686 40.7029C149.252 40.4956 148.761 40.392 148.212 40.392C146.944 40.392 145.977 40.717 145.311 41.3671C144.645 42.0171 144.312 42.9327 144.312 44.1137C144.312 44.921 144.544 45.5807 145.009 46.0925C145.474 46.6044 146.06 47.0522 146.768 47.4358C147.477 47.8195 148.243 48.1886 149.068 48.5432C149.892 48.8978 150.658 49.331 151.366 49.8429C152.074 50.3547 152.66 50.9844 153.125 51.7317C153.59 52.4799 153.823 53.4446 153.824 54.6256C153.823 55.6503 153.611 56.5463 153.189 57.3136C152.766 58.0819 152.206 58.7265 151.509 59.2474C150.811 59.7693 149.998 60.163 149.068 60.4284C148.137 60.6948 147.164 60.828 146.15 60.828C145.263 60.828 144.396 60.6998 143.55 60.4434C142.705 60.188 141.892 59.8729 141.11 59.4984C141.026 58.751 140.936 58.0032 140.84 57.255C140.745 56.5067 140.655 55.7584 140.571 55.0102Z" fill="#00A651"/>
<path d="M155.599 39.7727C156.211 39.7727 156.951 39.7923 157.818 39.8313C158.684 39.8704 159.508 39.89 160.29 39.89C161.094 39.89 161.939 39.8704 162.826 39.8313C163.714 39.7923 164.528 39.7727 165.267 39.7727V40.6578H164.824C164.549 40.6578 164.269 40.6728 163.983 40.7028C163.698 40.7319 163.445 40.8055 163.223 40.9237C163.001 41.0419 162.821 41.2092 162.684 41.4256C162.547 41.6429 162.478 41.9484 162.478 42.342V57.8154C162.478 58.1899 162.547 58.49 162.684 58.7154C162.821 58.9427 163.001 59.115 163.223 59.2323C163.445 59.3505 163.698 59.4246 163.983 59.4546C164.269 59.4837 164.549 59.4982 164.824 59.4982H165.267V60.3847C164.507 60.3847 163.682 60.3652 162.795 60.3261C161.907 60.2861 161.061 60.266 160.259 60.266C159.477 60.266 158.657 60.2861 157.801 60.3261C156.945 60.3652 156.211 60.3847 155.599 60.3847V59.4982H156.042C156.338 59.4982 156.623 59.4837 156.898 59.4546C157.173 59.4246 157.421 59.3505 157.643 59.2323C157.865 59.115 158.045 58.9427 158.182 58.7154C158.319 58.49 158.388 58.1899 158.388 57.8154V42.342C158.388 41.9484 158.319 41.6429 158.182 41.4256C158.045 41.2092 157.865 41.0419 157.643 40.9237C157.421 40.8055 157.173 40.7319 156.898 40.7028C156.623 40.6728 156.338 40.6578 156.042 40.6578H155.599V39.7727Z" fill="#00A651"/>
<path d="M169.833 39.89C170.319 39.89 170.789 39.8704 171.243 39.8313C171.698 39.7923 172.168 39.7727 172.654 39.7727L186.762 54.5669L186.826 54.5082V43.4344C186.826 42.8244 186.725 42.337 186.524 41.9725C186.323 41.6079 186.08 41.3274 185.796 41.131C185.51 40.9337 185.209 40.8055 184.892 40.7464C184.575 40.6873 184.3 40.6578 184.068 40.6578H183.37V39.7727C184.109 39.7727 184.849 39.7923 185.589 39.8313C186.329 39.8704 187.069 39.89 187.808 39.89C188.463 39.89 189.113 39.8704 189.759 39.8313C190.403 39.7923 191.053 39.7727 191.709 39.7727V40.6578H191.232C190.894 40.6578 190.556 40.6873 190.218 40.7464C189.88 40.8055 189.579 40.9633 189.315 41.2197C189.05 41.4751 188.833 41.8493 188.664 42.342C188.495 42.8339 188.41 43.5226 188.41 44.4082V57.8454C188.41 58.3572 188.421 58.8691 188.443 59.381C188.464 59.8928 188.517 60.3752 188.601 60.8279H187.396L171.069 43.8777V56.0438C171.069 56.6939 171.112 57.2353 171.196 57.6681C171.28 58.1008 171.433 58.455 171.655 58.7304C171.877 59.0068 172.183 59.2037 172.575 59.321C172.966 59.4392 173.457 59.4982 174.048 59.4982H174.587V60.3847C173.911 60.3847 173.23 60.3652 172.543 60.3261C171.856 60.2861 171.174 60.266 170.498 60.266C169.779 60.266 169.061 60.2861 168.343 60.3261C167.624 60.3652 166.905 60.3847 166.187 60.3847V59.4982H166.63C167.729 59.4982 168.48 59.1687 168.882 58.5095C169.283 57.8504 169.484 56.9298 169.484 55.7479V43.3158C169.484 42.9021 169.399 42.533 169.23 42.2084C169.061 41.8838 168.844 41.6033 168.58 41.367C168.315 41.1306 168.009 40.9533 167.66 40.8351C167.312 40.7169 166.958 40.6578 166.599 40.6578H166.187V39.7727C166.8 39.7727 167.407 39.7923 168.01 39.8313C168.612 39.8704 169.22 39.89 169.833 39.89Z" fill="#00A651"/>
<path d="M192.786 40.6578V39.7727C193.273 39.7727 193.833 39.7773 194.467 39.7863C195.102 39.7973 195.767 39.8123 196.464 39.8313C197.162 39.8513 197.87 39.8659 198.589 39.875C199.307 39.885 200.004 39.89 200.681 39.89C201.336 39.89 202.028 39.885 202.758 39.875C203.487 39.8659 204.205 39.8513 204.914 39.8313C205.622 39.8123 206.314 39.7973 206.99 39.7863C207.667 39.7773 208.269 39.7727 208.798 39.7727C208.776 40.0873 208.76 40.4414 208.75 40.8351C208.739 41.2297 208.739 41.6283 208.75 42.0311C208.76 42.4348 208.776 42.8335 208.798 43.2271C208.818 43.6217 208.839 43.9763 208.861 44.2909L207.909 44.5268C207.867 44.054 207.798 43.6063 207.703 43.1835C207.608 42.7598 207.428 42.3907 207.164 42.0761C206.9 41.7606 206.519 41.5142 206.023 41.337C205.527 41.1597 204.866 41.071 204.042 41.071H199.635V48.809H203.407C203.872 48.809 204.258 48.7499 204.565 48.6317C204.871 48.5136 205.12 48.3413 205.31 48.1149C205.5 47.8885 205.637 47.613 205.722 47.2884C205.806 46.9629 205.87 46.6034 205.912 46.2097H206.863C206.8 47.3516 206.769 48.5035 206.769 49.6655C206.769 50.7874 206.8 51.9093 206.863 53.0313L205.912 53.2085C205.87 52.7558 205.817 52.3521 205.753 51.9975C205.69 51.6439 205.579 51.3388 205.42 51.0824C205.262 50.827 205.03 50.6301 204.723 50.4919C204.416 50.3546 203.988 50.2855 203.439 50.2846H199.635V57.1662C199.635 57.6381 199.74 58.0072 199.952 58.2736C200.163 58.5391 200.448 58.7309 200.808 58.8491C201.167 58.9673 201.579 59.0364 202.044 59.0564C202.509 59.0755 202.995 59.085 203.503 59.085C204.454 59.085 205.278 59.0555 205.976 58.9964C206.673 58.9373 207.275 58.7895 207.783 58.5532C208.29 58.3177 208.718 57.9586 209.067 57.4758C209.415 56.9939 209.706 56.3293 209.939 55.4819L210.826 55.6892C210.615 56.4766 210.42 57.2589 210.24 58.0363C210.06 58.8145 209.896 59.5973 209.748 60.3847C209.241 60.3847 208.644 60.3797 207.957 60.3697C207.27 60.3597 206.546 60.3451 205.785 60.3261C205.024 60.3061 204.253 60.291 203.472 60.281C202.689 60.271 201.939 60.266 201.22 60.266C200.501 60.266 199.746 60.271 198.953 60.281C198.161 60.291 197.384 60.3061 196.624 60.3261C195.862 60.3451 195.143 60.3597 194.467 60.3697C193.791 60.3797 193.23 60.3847 192.786 60.3847V59.4982H193.231C193.527 59.4982 193.812 59.4837 194.087 59.4546C194.361 59.4246 194.61 59.3505 194.832 59.2323C195.054 59.115 195.233 58.9427 195.371 58.7154C195.508 58.49 195.577 58.1899 195.577 57.8154V42.342C195.577 41.9484 195.508 41.6429 195.371 41.4256C195.233 41.2092 195.054 41.0419 194.832 40.9237C194.61 40.8055 194.361 40.7319 194.087 40.7028C193.812 40.6728 193.527 40.6578 193.231 40.6578H192.786Z" fill="#00A651"/>
<path d="M212.886 55.0102L213.774 54.8329C213.859 55.463 214.023 56.0635 214.265 56.6344C214.508 57.2054 214.831 57.7023 215.233 58.125C215.634 58.5487 216.12 58.8883 216.69 59.1438C217.262 59.4002 217.928 59.5284 218.688 59.5284C219.238 59.5284 219.745 59.4497 220.21 59.2924C220.675 59.1351 221.087 58.9138 221.446 58.6283C221.806 58.3428 222.086 57.9932 222.287 57.5795C222.487 57.1659 222.587 56.6931 222.587 56.1612C222.587 55.2957 222.355 54.592 221.89 54.0501C221.425 53.5091 220.849 53.0418 220.162 52.6482C219.475 52.2545 218.73 51.8753 217.927 51.5108C217.123 51.1462 216.378 50.713 215.692 50.2111C215.005 49.7092 214.429 49.0842 213.964 48.3359C213.499 47.5877 213.266 46.623 213.266 45.442C213.266 44.4774 213.441 43.6159 213.791 42.8577C214.139 42.1003 214.62 41.4607 215.233 40.9388C215.845 40.417 216.585 40.0183 217.452 39.7428C218.318 39.4673 219.258 39.3296 220.273 39.3296C220.485 39.3296 220.797 39.3491 221.209 39.3882C221.621 39.4282 222.054 39.4728 222.508 39.5219C222.963 39.571 223.401 39.6201 223.824 39.6692C224.247 39.7183 224.585 39.7528 224.839 39.7728C224.839 40.462 224.865 41.1607 224.918 41.8689C224.971 42.5781 225.05 43.2868 225.156 43.995L224.268 44.1423C224.205 43.6705 224.078 43.2081 223.888 42.7554C223.698 42.3026 223.444 41.8989 223.126 41.5443C222.81 41.1898 222.435 40.9093 222.002 40.7029C221.568 40.4956 221.076 40.392 220.527 40.392C219.258 40.392 218.292 40.717 217.627 41.3671C216.961 42.0171 216.628 42.9327 216.628 44.1137C216.628 44.921 216.86 45.5807 217.325 46.0925C217.79 46.6044 218.376 47.0522 219.084 47.4358C219.792 47.8195 220.558 48.1886 221.384 48.5432C222.207 48.8978 222.973 49.331 223.682 49.8429C224.389 50.3547 224.976 50.9844 225.441 51.7317C225.906 52.4799 226.138 53.4446 226.138 54.6256C226.138 55.6503 225.927 56.5463 225.505 57.3136C225.082 58.0819 224.521 58.7265 223.824 59.2474C223.127 59.7693 222.313 60.163 221.384 60.4284C220.453 60.6948 219.48 60.828 218.466 60.828C217.578 60.828 216.711 60.6998 215.866 60.4434C215.021 60.188 214.207 59.8729 213.425 59.4984C213.34 58.751 213.251 58.0032 213.156 57.255C213.06 56.5067 212.97 55.7584 212.886 55.0102Z" fill="#00A651"/>
<path d="M228.771 55.0102L229.658 54.8329C229.742 55.463 229.906 56.0635 230.149 56.6344C230.392 57.2054 230.714 57.7023 231.116 58.125C231.518 58.5487 232.003 58.8883 232.574 59.1438C233.145 59.4002 233.811 59.5284 234.572 59.5284C235.121 59.5284 235.628 59.4497 236.093 59.2924C236.558 59.1351 236.97 58.9138 237.33 58.6283C237.689 58.3428 237.969 57.9932 238.17 57.5795C238.371 57.1659 238.471 56.6931 238.472 56.1612C238.471 55.2957 238.239 54.592 237.775 54.0501C237.309 53.5091 236.732 53.0418 236.046 52.6482C235.359 52.2545 234.614 51.8753 233.81 51.5108C233.007 51.1462 232.262 50.713 231.576 50.2111C230.888 49.7092 230.312 49.0842 229.847 48.3359C229.382 47.5877 229.15 46.623 229.15 45.442C229.15 44.4774 229.325 43.6159 229.674 42.8577C230.022 42.1003 230.503 41.4607 231.116 40.9388C231.729 40.417 232.468 40.0183 233.335 39.7428C234.201 39.4673 235.142 39.3296 236.157 39.3296C236.369 39.3296 236.68 39.3491 237.092 39.3882C237.504 39.4282 237.937 39.4728 238.391 39.5219C238.846 39.571 239.285 39.6201 239.708 39.6692C240.131 39.7183 240.468 39.7528 240.722 39.7728C240.722 40.462 240.749 41.1607 240.801 41.8689C240.854 42.5781 240.933 43.2868 241.039 43.995L240.152 44.1423C240.088 43.6705 239.961 43.2081 239.771 42.7554C239.581 42.3026 239.327 41.8989 239.01 41.5443C238.693 41.1898 238.318 40.9093 237.885 40.7029C237.451 40.4956 236.959 40.392 236.41 40.392C235.143 40.392 234.176 40.717 233.51 41.3671C232.844 42.0171 232.511 42.9327 232.511 44.1137C232.511 44.921 232.744 45.5807 233.208 46.0925C233.673 46.6044 234.26 47.0522 234.967 47.4358C235.676 47.8195 236.443 48.1886 237.267 48.5432C238.091 48.8978 238.857 49.331 239.565 49.8429C240.273 50.3547 240.859 50.9844 241.324 51.7317C241.789 52.4799 242.021 53.4446 242.021 54.6256C242.021 55.6503 241.81 56.5463 241.388 57.3136C240.965 58.0819 240.405 58.7265 239.708 59.2474C239.011 59.7693 238.197 60.163 237.267 60.4284C236.336 60.6948 235.364 60.828 234.349 60.828C233.461 60.828 232.595 60.6998 231.75 60.4434C230.904 60.188 230.091 59.8729 229.31 59.4984C229.224 58.751 229.134 58.0032 229.039 57.255C228.944 56.5067 228.854 55.7584 228.771 55.0102Z" fill="#00A651"/>
<path d="M7.98145 50.4717L9.791 50.1199C9.96295 51.3709 10.2973 52.5633 10.794 53.6971C11.289 54.8308 11.9458 55.8177 12.7646 56.6578C13.5834 57.4988 14.5746 58.1729 15.7382 58.6803C16.9019 59.1885 18.2593 59.4426 19.8104 59.4426C20.9304 59.4426 21.9648 59.2862 22.9137 58.9735C23.8608 58.6607 24.701 58.2211 25.4342 57.6547C26.1657 57.0883 26.7366 56.3941 27.1469 55.5722C27.5563 54.7522 27.761 53.8143 27.761 52.7588C27.761 51.0386 27.287 49.6412 26.339 48.5666C25.3901 47.4919 24.2156 46.5632 22.8154 45.7804C21.4153 44.9994 19.8964 44.247 18.2588 43.5233C16.6212 42.8005 15.1023 41.9405 13.7022 40.9431C12.3011 39.9466 11.127 38.7056 10.1799 37.22C9.23103 35.7344 8.75658 33.8192 8.75658 31.4744C8.75749 29.5588 9.11321 27.8486 9.82375 26.344C10.5343 24.8393 11.5146 23.5687 12.7646 22.5322C14.0138 21.4967 15.5222 20.7052 17.2899 20.1579C19.0567 19.6106 20.974 19.3369 23.042 19.3369C23.4732 19.3369 24.1091 19.376 24.9498 19.4542C25.7895 19.5324 26.6729 19.6201 27.6 19.7174C28.5252 19.8156 29.4191 19.9133 30.2816 20.0106C31.1431 20.1088 31.8327 20.1775 32.3504 20.2165C32.3504 21.5849 32.4041 22.9723 32.5114 24.3788C32.6188 25.7862 32.7807 27.1936 32.9973 28.601L31.1863 28.8942C31.0572 27.9559 30.7988 27.0372 30.4112 26.138C30.0236 25.2389 29.5064 24.4374 28.8596 23.7337C28.2127 23.03 27.448 22.4731 26.5656 22.0631C25.6813 21.653 24.6791 21.448 23.5592 21.448C20.9736 21.448 19.0021 22.0926 17.6447 23.3819C16.2873 24.672 15.6086 26.4899 15.6086 28.8356C15.6086 30.4384 16.0826 31.7477 17.0306 32.7632C17.9786 33.7806 19.1745 34.6702 20.6183 35.4321C22.0621 36.194 23.6242 36.9268 25.3046 37.6305C26.985 38.3342 28.5471 39.1943 29.9909 40.2108C31.4338 41.2272 32.6297 42.4778 33.5786 43.9625C34.5266 45.449 35.0006 47.3646 35.0006 49.7094C35.0006 51.7423 34.5698 53.5207 33.7083 55.0444C32.8458 56.57 31.7036 57.8506 30.2816 58.8862C28.8596 59.9217 27.2006 60.7032 25.3046 61.2305C23.4086 61.7587 21.4262 62.0229 19.3574 62.0229C17.5478 62.0219 15.781 61.7678 14.057 61.2605C12.3329 60.7523 10.6739 60.1268 9.08001 59.384C8.90806 57.8993 8.72519 56.4137 8.53141 54.9272C8.33672 53.4425 8.15339 51.9573 7.98145 50.4717Z" fill="#00A651"/>
<path fill-rule="evenodd" clip-rule="evenodd" d="M38.8799 20.2166C40.3019 20.2166 41.8853 20.2556 43.6303 20.3338C45.3762 20.412 47.1539 20.4511 48.9635 20.4511C50.8158 20.4511 52.6258 20.412 54.3935 20.3338C56.1594 20.2556 57.7965 20.2166 59.3049 20.2166C62.0197 20.2166 64.3251 20.4607 66.2211 20.9489C68.1171 21.438 69.6578 22.0926 70.8433 22.9127C72.0278 23.7337 72.8898 24.7015 73.4293 25.8162C73.9679 26.9299 74.2372 28.1319 74.2372 29.422C74.2363 30.9076 73.8915 32.1973 73.2028 33.291C72.5132 34.3856 71.6084 35.3144 70.4884 36.0772C69.3667 36.8391 68.1062 37.445 66.7069 37.8951C65.3059 38.3442 63.8943 38.6861 62.4724 38.9206V39.0379C64.2392 39.0379 65.9736 39.2429 67.6758 39.653C69.378 40.0639 70.9188 40.6994 72.298 41.5595C73.6763 42.4196 74.7858 43.5138 75.6264 44.8421C76.4671 46.1722 76.8874 47.736 76.8874 49.5335C76.8874 51.1364 76.4889 52.6415 75.6919 54.0489C74.8941 55.4554 73.806 56.6864 72.4276 57.742C71.0475 58.7976 69.4313 59.6281 67.579 60.2336C65.7257 60.84 63.7438 61.1432 61.6331 61.1432C59.9946 61.1432 58.2168 61.1041 56.2999 61.0259C54.3821 60.9478 52.3892 60.9087 50.3213 60.9087C49.3296 60.9087 48.3061 60.9182 47.2508 60.9373C46.1936 60.9582 45.1592 60.9878 44.1475 61.0259C43.1349 61.065 42.176 61.0941 41.2708 61.1132C40.3656 61.1332 39.5686 61.1432 38.8799 61.1432V59.384H39.7847C40.3878 59.384 40.9697 59.3549 41.5301 59.2967C42.0896 59.2376 42.5959 59.0908 43.049 58.8562C43.5011 58.6216 43.8673 58.2798 44.1475 57.8306C44.4277 57.3815 44.5678 56.7851 44.5678 56.0414V25.317C44.5678 24.5361 44.4277 23.9301 44.1475 23.4991C43.8673 23.07 43.5011 22.7377 43.049 22.5022C42.5959 22.2677 42.0896 22.1213 41.5301 22.0631C40.9697 22.004 40.3878 21.9745 39.7847 21.9745H38.8799V20.2166ZM56.0093 38.1596C58.7668 38.1596 61.0504 37.5732 62.8599 36.4004C64.6704 35.2275 65.5756 33.2733 65.5756 30.5375C65.5756 28.8174 65.3168 27.4295 64.7991 26.374C64.2824 25.3184 63.6146 24.4879 62.7958 23.8824C61.977 23.2768 61.0399 22.8664 59.9846 22.6509C58.9283 22.4363 57.8402 22.3286 56.7203 22.3277H52.8419V38.1596H56.0093ZM52.8419 40.2708V54.0489C52.8419 55.0663 52.9064 55.8973 53.0356 56.5419C53.1648 57.1865 53.445 57.6947 53.8763 58.0666C54.3066 58.4375 54.8989 58.6912 55.6531 58.8276C56.4064 58.9648 57.4085 59.0335 58.6595 59.0335C60.0378 59.0335 61.3087 58.7989 62.4724 58.3298C63.636 57.8606 64.649 57.206 65.5115 56.3659C66.3721 55.5259 67.0399 54.5385 67.5148 53.4038C67.9888 52.271 68.2258 51.0595 68.2258 49.7694C68.2258 48.1274 67.9456 46.7105 67.3852 45.5185C66.8248 44.3266 66.0382 43.3392 65.0257 42.5564C64.0131 41.7755 62.8281 41.199 61.4707 40.8272C60.1133 40.4562 58.6158 40.2708 56.9782 40.2708H52.8419Z" fill="#00A651"/>
<path d="M78.0746 81.0227H7.43642C3.89373 81.0227 1.02246 78.1533 1.02246 74.613V7.43242C1.02246 3.89208 3.89373 1.02271 7.43642 1.02271H78.0746C81.6173 1.02271 84.4886 3.89208 84.4886 7.43242V74.613C84.4886 78.1533 81.6173 81.0227 78.0746 81.0227Z" stroke="#00A651" stroke-width="2.04565" stroke-miterlimit="10"/>
<path d="M96.5426 71.7587H94.456V77.2615H93.3028V71.7587H91.2354V70.8613H96.5426V71.7587Z" fill="#00A651"/>
<path d="M98.5249 73.0242C98.8888 72.6196 99.3496 72.4173 99.9073 72.4173C100.967 72.4173 101.505 72.996 101.52 74.1534V77.2614H100.404V74.1929C100.404 73.8647 100.329 73.6324 100.18 73.496C100.032 73.3606 99.8141 73.2928 99.5266 73.2928C99.0789 73.2928 98.7451 73.4833 98.5249 73.8642V77.2614H97.4072V70.5107H98.5249V73.0242Z" fill="#00A651"/>
<path fill-rule="evenodd" clip-rule="evenodd" d="M104.951 77.3486C104.243 77.3486 103.669 77.1354 103.23 76.709C102.79 76.2826 102.569 75.7148 102.569 75.0057V74.8747C102.569 74.4002 102.665 73.976 102.857 73.6024C103.048 73.2287 103.317 72.9377 103.664 72.7295C104.01 72.5213 104.395 72.4172 104.821 72.4172C105.498 72.4172 106.021 72.6241 106.39 73.0377C106.76 73.4505 106.944 74.0351 106.944 74.7916V75.2211H103.695C103.729 75.6139 103.866 75.9249 104.107 76.154C104.348 76.3822 104.65 76.4963 105.015 76.4963C105.526 76.4963 105.943 76.2985 106.265 75.903L106.867 76.4526C106.667 76.7363 106.401 76.9568 106.068 77.1141C105.736 77.2704 105.364 77.3486 104.951 77.3486ZM104.817 73.2751C104.51 73.2751 104.263 73.3773 104.075 73.5819C103.886 73.7874 103.766 74.0733 103.714 74.4397H105.842V74.3606C105.817 74.0033 105.718 73.7328 105.543 73.5492C105.368 73.3664 105.126 73.2751 104.817 73.2751Z" fill="#00A651"/>
<path fill-rule="evenodd" clip-rule="evenodd" d="M112.946 74.7999H111.65V77.2615H110.487V70.8613H112.84C113.612 70.8613 114.208 71.0272 114.628 71.3591C115.047 71.69 115.257 72.1696 115.257 72.7979C115.257 73.2261 115.149 73.5843 114.933 73.8725C114.717 74.1616 114.416 74.3839 114.03 74.5394L115.532 77.2042V77.2615H114.288L112.946 74.7999ZM111.65 73.9025H112.845C113.238 73.9025 113.544 73.808 113.764 73.6189C113.984 73.4298 114.094 73.1715 114.094 72.8442C114.094 72.5015 113.992 72.236 113.788 72.0478C113.586 71.8605 113.282 71.7641 112.877 71.7587H111.65V73.9025Z" fill="#00A651"/>
<path fill-rule="evenodd" clip-rule="evenodd" d="M116.157 74.8393C116.157 74.3738 116.254 73.9542 116.447 73.5805C116.639 73.2069 116.911 72.9196 117.26 72.7186C117.608 72.5177 118.01 72.4172 118.464 72.4172C119.134 72.4172 119.679 72.6241 120.097 73.0377C120.515 73.4505 120.74 73.9983 120.774 74.6811L120.779 74.932C120.779 75.4003 120.685 75.8189 120.497 76.1881C120.309 76.5572 120.039 76.8431 119.688 77.0459C119.337 77.2477 118.933 77.3486 118.473 77.3486C117.771 77.3486 117.209 77.1254 116.789 76.679C116.368 76.2317 116.157 75.6362 116.157 74.8925V74.8393ZM117.274 74.9307C117.274 75.4198 117.379 75.803 117.59 76.0803C117.801 76.3576 118.096 76.4963 118.473 76.4963C118.85 76.4963 119.143 76.3553 119.352 76.0735C119.562 75.7926 119.667 75.3812 119.667 74.8393C119.667 74.3583 119.559 73.9774 119.344 73.6965C119.127 73.4146 118.834 73.2737 118.464 73.2737C118.099 73.2737 117.809 73.4123 117.594 73.6896C117.38 73.966 117.274 74.3797 117.274 74.9307Z" fill="#00A651"/>
<path fill-rule="evenodd" clip-rule="evenodd" d="M124.806 77.2613C124.757 77.1704 124.714 77.0222 124.678 76.8168C124.322 77.1713 123.887 77.3486 123.373 77.3486C122.874 77.3486 122.466 77.2122 122.15 76.9395C121.835 76.6677 121.677 76.3308 121.677 75.9289C121.677 75.4225 121.874 75.0339 122.268 74.7629C122.661 74.4911 123.223 74.3552 123.956 74.3552H124.641V74.0442C124.641 73.7978 124.569 73.6005 124.425 73.4523C124.281 73.3041 124.061 73.23 123.767 73.23C123.514 73.231 123.305 73.2919 123.142 73.4128C122.98 73.5346 122.9 73.6892 122.9 73.8765H121.783C121.783 73.6155 121.873 73.3719 122.053 73.1455C122.234 72.9182 122.481 72.74 122.792 72.6109C123.102 72.4818 123.449 72.4172 123.832 72.4172C124.414 72.4172 124.878 72.5573 125.224 72.8373C125.57 73.1173 125.748 73.5105 125.757 74.0169V76.1621C125.757 76.5895 125.82 76.9309 125.945 77.1863V77.2613H124.806ZM123.579 76.4922C123.799 76.4922 124.007 76.4408 124.201 76.3381C124.396 76.2353 124.543 76.0976 124.641 75.9249V75.0289H124.039C123.625 75.0289 123.314 75.0975 123.106 75.2348C122.897 75.3721 122.793 75.5671 122.793 75.8198C122.793 76.0244 122.864 76.1876 123.007 76.3094C123.149 76.4313 123.34 76.4922 123.579 76.4922Z" fill="#00A651"/>
<path fill-rule="evenodd" clip-rule="evenodd" d="M126.831 74.8475C126.83 74.1156 127.008 73.5279 127.363 73.0842C127.719 72.6396 128.195 72.4173 128.792 72.4173C129.319 72.4173 129.745 72.5932 130.069 72.9451V70.5107H131.186V77.2614H130.176L130.12 76.7691C129.786 77.1555 129.34 77.3487 128.783 77.3487C128.201 77.3487 127.73 77.1246 127.37 76.6763C127.011 76.2281 126.831 75.6185 126.831 74.8475ZM127.947 74.9403C127.947 75.4239 128.044 75.8012 128.238 76.0722C128.433 76.3431 128.709 76.4786 129.068 76.4786C129.524 76.4786 129.858 76.2836 130.069 75.8935V73.8642C129.865 73.4833 129.534 73.2928 129.077 73.2928C128.716 73.2928 128.437 73.4297 128.241 73.7033C128.045 73.977 127.947 74.3893 127.947 74.9403Z" fill="#00A651"/>
<path d="M136.319 71.3496V72.5061H137.196V73.2971H136.319V75.951C136.319 76.1328 136.356 76.2642 136.431 76.3451C136.506 76.4251 136.64 76.4651 136.833 76.4651C136.962 76.4651 137.092 76.4506 137.224 76.4215V77.2479C136.97 77.3152 136.725 77.3488 136.488 77.3488C135.631 77.3488 135.203 76.8961 135.203 75.9905V73.2971H134.384V72.5061H135.203V71.3496H136.319Z" fill="#00A651"/>
<path fill-rule="evenodd" clip-rule="evenodd" d="M137.815 74.8393C137.815 74.3738 137.912 73.9542 138.105 73.5805C138.298 73.2069 138.569 72.9196 138.918 72.7186C139.267 72.5177 139.669 72.4172 140.122 72.4172C140.793 72.4172 141.338 72.6241 141.755 73.0377C142.174 73.4505 142.4 73.9983 142.433 74.6811L142.438 74.932C142.438 75.4003 142.343 75.8189 142.155 76.1881C141.967 76.5572 141.697 76.8431 141.346 77.0459C140.996 77.2477 140.591 77.3486 140.131 77.3486C139.43 77.3486 138.869 77.1254 138.447 76.679C138.026 76.2317 137.815 75.6362 137.815 74.8925V74.8393ZM138.932 74.9307C138.932 75.4198 139.037 75.803 139.248 76.0803C139.46 76.3576 139.755 76.4963 140.131 76.4963C140.508 76.4963 140.801 76.3553 141.012 76.0735C141.221 75.7926 141.325 75.3812 141.325 74.8393C141.325 74.3583 141.218 73.9774 141.002 73.6965C140.785 73.4146 140.492 73.2737 140.122 73.2737C139.757 73.2737 139.468 73.4123 139.254 73.6896C139.039 73.966 138.932 74.3797 138.932 74.9307Z" fill="#00A651"/>
<path d="M151.306 75.6782L152.335 70.8613H153.488L151.944 77.2615H150.832L149.559 72.5892L148.258 77.2615H147.142L145.599 70.8613H146.752L147.79 75.67L149.068 70.8613H150.042L151.306 75.6782Z" fill="#00A651"/>
<path fill-rule="evenodd" clip-rule="evenodd" d="M156.391 77.3486C155.684 77.3486 155.111 77.1354 154.671 76.709C154.231 76.2826 154.011 75.7148 154.011 75.0057V74.8747C154.011 74.4002 154.107 73.976 154.299 73.6024C154.49 73.2287 154.759 72.9377 155.105 72.7295C155.451 72.5213 155.837 72.4172 156.262 72.4172C156.939 72.4172 157.462 72.6241 157.832 73.0377C158.201 73.4505 158.386 74.0351 158.386 74.7916V75.2211H155.137C155.17 75.6139 155.308 75.9249 155.549 76.154C155.789 76.3822 156.091 76.4963 156.456 76.4963C156.968 76.4963 157.384 76.2985 157.705 75.903L158.307 76.4526C158.108 76.7363 157.843 76.9568 157.51 77.1141C157.178 77.2704 156.805 77.3486 156.391 77.3486ZM156.258 73.2751C155.952 73.2751 155.704 73.3773 155.516 73.5819C155.328 73.7874 155.208 74.0733 155.156 74.4397H157.283V74.3606C157.259 74.0033 157.159 73.7328 156.984 73.5492C156.81 73.3664 156.568 73.2751 156.258 73.2751Z" fill="#00A651"/>
<path fill-rule="evenodd" clip-rule="evenodd" d="M162.335 77.2613C162.286 77.1704 162.243 77.0222 162.207 76.8168C161.851 77.1713 161.416 77.3486 160.901 77.3486C160.401 77.3486 159.994 77.2122 159.68 76.9395C159.364 76.6677 159.206 76.3308 159.206 75.9289C159.206 75.4225 159.403 75.0339 159.797 74.7629C160.19 74.4911 160.753 74.3552 161.485 74.3552H162.17V74.0442C162.17 73.7978 162.098 73.6005 161.953 73.4523C161.809 73.3041 161.591 73.23 161.297 73.23C161.042 73.231 160.834 73.2919 160.672 73.4128C160.51 73.5346 160.429 73.6892 160.429 73.8765H159.311C159.311 73.6155 159.402 73.3719 159.583 73.1455C159.764 72.9182 160.009 72.74 160.32 72.6109C160.631 72.4818 160.978 72.4172 161.361 72.4172C161.943 72.4172 162.407 72.5573 162.753 72.8373C163.099 73.1173 163.277 73.5105 163.286 74.0169V76.1621C163.286 76.5895 163.349 76.9309 163.475 77.1863V77.2613H162.335ZM161.108 76.4922C161.329 76.4922 161.536 76.4408 161.731 76.3381C161.925 76.2353 162.072 76.0976 162.17 75.9249V75.0289H161.567C161.154 75.0289 160.843 75.0975 160.635 75.2348C160.427 75.3721 160.322 75.5671 160.322 75.8198C160.322 76.0244 160.394 76.1876 160.537 76.3094C160.679 76.4313 160.869 76.4922 161.108 76.4922Z" fill="#00A651"/>
<path d="M165.756 77.2614H164.64V70.5107H165.756V77.2614Z" fill="#00A651"/>
<path d="M168.484 71.3496V72.5061H169.361V73.2971H168.484V75.951C168.484 76.1328 168.521 76.2642 168.597 76.3451C168.671 76.4251 168.805 76.4651 168.998 76.4651C169.127 76.4651 169.258 76.4506 169.39 76.4215V77.2479C169.135 77.3152 168.89 77.3488 168.654 77.3488C167.796 77.3488 167.367 76.8961 167.367 75.9905V73.2971H166.55V72.5061H167.367V71.3496H168.484Z" fill="#00A651"/>
<path d="M171.426 73.0242C171.791 72.6196 172.252 72.4173 172.81 72.4173C173.87 72.4173 174.407 72.996 174.421 74.1534V77.2614H173.305V74.1929C173.305 73.8647 173.231 73.6324 173.083 73.496C172.934 73.3606 172.716 73.2928 172.428 73.2928C171.981 73.2928 171.647 73.4833 171.426 73.8642V77.2614H170.31V70.5107H171.426V73.0242Z" fill="#00A651"/>
<path fill-rule="evenodd" clip-rule="evenodd" d="M181.089 77.2613C181.04 77.1704 180.997 77.0222 180.961 76.8168C180.605 77.1713 180.17 77.3486 179.656 77.3486C179.157 77.3486 178.749 77.2122 178.433 76.9395C178.118 76.6677 177.96 76.3308 177.96 75.9289C177.96 75.4225 178.157 75.0339 178.551 74.7629C178.945 74.4911 179.508 74.3552 180.239 74.3552H180.924V74.0442C180.924 73.7978 180.852 73.6005 180.708 73.4523C180.565 73.3041 180.345 73.23 180.051 73.23C179.797 73.231 179.588 73.2919 179.426 73.4128C179.264 73.5346 179.183 73.6892 179.183 73.8765H178.066C178.066 73.6155 178.157 73.3719 178.338 73.1455C178.518 72.9182 178.764 72.74 179.075 72.6109C179.386 72.4818 179.733 72.4172 180.116 72.4172C180.698 72.4172 181.161 72.5573 181.508 72.8373C181.854 73.1173 182.031 73.5105 182.04 74.0169V76.1621C182.04 76.5895 182.103 76.9309 182.229 77.1863V77.2613H181.089ZM179.862 76.4922C180.083 76.4922 180.291 76.4408 180.485 76.3381C180.679 76.2353 180.826 76.0976 180.924 75.9249V75.0289H180.322C179.908 75.0289 179.597 75.0975 179.389 75.2348C179.181 75.3721 179.078 75.5671 179.078 75.8198C179.078 76.0244 179.149 76.1876 179.291 76.3094C179.433 76.4313 179.624 76.4922 179.862 76.4922Z" fill="#00A651"/>
<path d="M184.36 72.5059L184.393 73.0555C184.76 72.63 185.242 72.4172 185.839 72.4172C186.874 72.4172 187.401 72.9841 187.419 74.1179V77.2613H186.303V74.1806C186.303 73.8787 186.235 73.6551 186.1 73.5096C185.963 73.3651 185.74 73.2928 185.431 73.2928C184.981 73.2928 184.645 73.4873 184.424 73.8765V77.2613H183.308V72.5059H184.36Z" fill="#00A651"/>
<path fill-rule="evenodd" clip-rule="evenodd" d="M188.46 74.8475C188.46 74.1156 188.638 73.5279 188.994 73.0842C189.348 72.6396 189.825 72.4173 190.422 72.4173C190.949 72.4173 191.375 72.5932 191.7 72.9451V70.5107H192.816V77.2614H191.805L191.75 76.7691C191.416 77.1555 190.97 77.3487 190.413 77.3487C189.831 77.3487 189.36 77.1246 189 76.6763C188.64 76.2281 188.46 75.6185 188.46 74.8475ZM189.578 74.9403C189.577 75.4239 189.674 75.8012 189.868 76.0722C190.063 76.3431 190.34 76.4786 190.698 76.4786C191.155 76.4786 191.489 76.2836 191.7 75.8935V73.8642C191.494 73.4833 191.163 73.2928 190.708 73.2928C190.345 73.2928 190.067 73.4297 189.871 73.7033C189.675 73.977 189.578 74.3893 189.578 74.9403Z" fill="#00A651"/>
<path d="M201.97 77.2615H200.812V74.4221H197.821V77.2615H196.659V70.8613H197.821V73.5248H200.812V70.8613H201.97V77.2615Z" fill="#00A651"/>
<path fill-rule="evenodd" clip-rule="evenodd" d="M206.32 77.2613C206.271 77.1704 206.227 77.0222 206.19 76.8168C205.835 77.1713 205.4 77.3486 204.885 77.3486C204.386 77.3486 203.979 77.2122 203.664 76.9395C203.348 76.6677 203.19 76.3308 203.19 75.9289C203.19 75.4225 203.387 75.0339 203.78 74.7629C204.174 74.4911 204.737 74.3552 205.469 74.3552H206.154V74.0442C206.154 73.7978 206.082 73.6005 205.938 73.4523C205.794 73.3041 205.575 73.23 205.281 73.23C205.026 73.231 204.818 73.2919 204.656 73.4128C204.493 73.5346 204.412 73.6892 204.412 73.8765H203.296C203.296 73.6155 203.386 73.3719 203.567 73.1455C203.748 72.9182 203.994 72.74 204.304 72.6109C204.615 72.4818 204.962 72.4172 205.345 72.4172C205.928 72.4172 206.391 72.5573 206.737 72.8373C207.084 73.1173 207.262 73.5105 207.271 74.0169V76.1621C207.271 76.5895 207.334 76.9309 207.459 77.1863V77.2613H206.32ZM205.093 76.4922C205.313 76.4922 205.52 76.4408 205.715 76.3381C205.91 76.2353 206.056 76.0976 206.153 75.9249V75.0289H205.551C205.138 75.0289 204.828 75.0975 204.619 75.2348C204.411 75.3721 204.307 75.5671 204.307 75.8198C204.307 76.0244 204.378 76.1876 204.52 76.3094C204.662 76.4313 204.854 76.4922 205.093 76.4922Z" fill="#00A651"/>
<path fill-rule="evenodd" clip-rule="evenodd" d="M212.906 74.932C212.906 75.6676 212.731 76.254 212.382 76.6913C212.032 77.1295 211.563 77.3486 210.975 77.3486C210.43 77.3486 209.994 77.1772 209.666 76.8345V79.0888H208.55V72.5059H209.579L209.625 72.9887C209.953 72.6077 210.398 72.4172 210.961 72.4172C211.568 72.4172 212.044 72.6336 212.389 73.0664C212.733 73.4983 212.906 74.0979 212.906 74.8652V74.932ZM211.794 74.8407C211.794 74.3661 211.695 73.9892 211.497 73.7101C211.299 73.4319 211.016 73.2928 210.649 73.2928C210.193 73.2928 209.865 73.4732 209.666 73.8342V75.9439C209.868 76.3131 210.199 76.4976 210.658 76.4976C211.014 76.4976 211.292 76.3603 211.492 76.0858C211.693 75.8121 211.794 75.3971 211.794 74.8407Z" fill="#00A651"/>
<path fill-rule="evenodd" clip-rule="evenodd" d="M218.317 74.932C218.317 75.6676 218.142 76.254 217.794 76.6913C217.445 77.1295 216.976 77.3486 216.387 77.3486C215.842 77.3486 215.406 77.1772 215.078 76.8345V79.0888H213.962V72.5059H214.991L215.036 72.9887C215.364 72.6077 215.81 72.4172 216.373 72.4172C216.98 72.4172 217.456 72.6336 217.801 73.0664C218.145 73.4983 218.317 74.0979 218.317 74.8652V74.932ZM217.206 74.8407C217.206 74.3661 217.107 73.9892 216.908 73.7101C216.711 73.4319 216.428 73.2928 216.061 73.2928C215.604 73.2928 215.277 73.4732 215.078 73.8342V75.9439C215.28 76.3131 215.611 76.4976 216.07 76.4976C216.425 76.4976 216.703 76.3603 216.904 76.0858C217.105 75.8121 217.206 75.3971 217.206 74.8407Z" fill="#00A651"/>
<path d="M219.376 71.2704C219.376 71.1067 219.43 70.9704 219.538 70.8613C219.648 70.7531 219.803 70.699 220.005 70.699C220.207 70.699 220.363 70.7531 220.473 70.8613C220.584 70.9704 220.64 71.1067 220.64 71.2704C220.64 71.4313 220.584 71.5654 220.473 71.6727C220.363 71.78 220.207 71.8336 220.005 71.8336C219.803 71.8336 219.648 71.78 219.538 71.6727C219.43 71.5654 219.376 71.4313 219.376 71.2704ZM220.561 77.2614H219.444V72.506H220.561V77.2614Z" fill="#00A651"/>
<path d="M222.926 72.5059L222.958 73.0555C223.326 72.63 223.809 72.4172 224.405 72.4172C225.441 72.4172 225.968 72.9841 225.986 74.1179V77.2613H224.869V74.1806C224.869 73.8787 224.801 73.6551 224.665 73.5096C224.528 73.3651 224.305 73.2928 223.996 73.2928C223.546 73.2928 223.21 73.4873 222.99 73.8765V77.2613H221.874V72.5059H222.926Z" fill="#00A651"/>
<path fill-rule="evenodd" clip-rule="evenodd" d="M229.426 77.3486C228.718 77.3486 228.144 77.1354 227.705 76.709C227.266 76.2826 227.046 75.7148 227.046 75.0057V74.8747C227.046 74.4002 227.141 73.976 227.332 73.6024C227.524 73.2287 227.792 72.9377 228.139 72.7295C228.485 72.5213 228.87 72.4172 229.296 72.4172C229.973 72.4172 230.496 72.6241 230.866 73.0377C231.235 73.4505 231.42 74.0351 231.42 74.7916V75.2211H228.17C228.204 75.6139 228.341 75.9249 228.583 76.154C228.823 76.3822 229.125 76.4963 229.49 76.4963C230.001 76.4963 230.418 76.2985 230.74 75.903L231.342 76.4526C231.143 76.7363 230.877 76.9568 230.544 77.1141C230.211 77.2704 229.839 77.3486 229.426 77.3486ZM229.292 73.2751C228.986 73.2751 228.738 73.3773 228.55 73.5819C228.361 73.7874 228.241 74.0733 228.189 74.4397H230.317V74.3606C230.292 74.0033 230.193 73.7328 230.018 73.5492C229.843 73.3664 229.601 73.2751 229.292 73.2751Z" fill="#00A651"/>
<path d="M235.184 75.9685C235.184 75.7785 235.102 75.6335 234.938 75.5335C234.775 75.4344 234.503 75.3466 234.124 75.2702C233.743 75.1939 233.426 75.097 233.173 74.9798C232.615 74.7216 232.336 74.3479 232.336 73.8587C232.336 73.4487 232.517 73.1059 232.878 72.8305C233.239 72.555 233.698 72.4172 234.256 72.4172C234.85 72.4172 235.331 72.5582 235.697 72.84C236.063 73.1209 236.246 73.4855 236.246 73.9337H235.13C235.13 73.7292 235.05 73.5587 234.891 73.4223C234.731 73.286 234.52 73.2178 234.256 73.2178C234.011 73.2178 233.812 73.2719 233.657 73.3801C233.502 73.4882 233.425 73.6333 233.425 73.8151C233.425 73.9797 233.497 74.1069 233.641 74.197C233.784 74.2879 234.076 74.3797 234.514 74.4724C234.952 74.5643 235.296 74.6743 235.546 74.8025C235.795 74.9298 235.98 75.0825 236.101 75.2607C236.222 75.4398 236.283 75.6566 236.283 75.9112C236.283 76.3394 236.098 76.6858 235.727 76.9504C235.356 77.2159 234.87 77.3486 234.27 77.3486C233.862 77.3486 233.499 77.2782 233.181 77.1372C232.862 76.9972 232.614 76.804 232.437 76.5576C232.26 76.3112 232.171 76.0462 232.171 75.7626H233.254C233.27 76.0144 233.37 76.2085 233.553 76.3449C233.737 76.4813 233.98 76.5495 234.283 76.5495C234.578 76.5495 234.802 76.4958 234.955 76.3885C235.108 76.2812 235.184 76.1412 235.184 75.9685Z" fill="#00A651"/>
<path d="M240.154 75.9685C240.154 75.7785 240.072 75.6335 239.909 75.5335C239.745 75.4344 239.473 75.3466 239.092 75.2702C238.713 75.1939 238.396 75.097 238.141 74.9798C237.584 74.7216 237.305 74.3479 237.305 73.8587C237.305 73.4487 237.486 73.1059 237.848 72.8305C238.209 72.555 238.669 72.4172 239.226 72.4172C239.82 72.4172 240.3 72.5582 240.666 72.84C241.033 73.1209 241.216 73.4855 241.216 73.9337H240.1C240.099 73.7292 240.019 73.5587 239.859 73.4223C239.7 73.286 239.489 73.2178 239.226 73.2178C238.981 73.2178 238.78 73.2719 238.626 73.3801C238.471 73.4882 238.394 73.6333 238.394 73.8151C238.394 73.9797 238.466 74.1069 238.611 74.197C238.755 74.2879 239.045 74.3797 239.483 74.4724C239.921 74.5643 240.265 74.6743 240.514 74.8025C240.765 74.9298 240.95 75.0825 241.071 75.2607C241.192 75.4398 241.253 75.6566 241.253 75.9112C241.253 76.3394 241.067 76.6858 240.696 76.9504C240.326 77.2159 239.84 77.3486 239.24 77.3486C238.832 77.3486 238.469 77.2782 238.151 77.1372C237.832 76.9972 237.584 76.804 237.406 76.5576C237.228 76.3112 237.14 76.0462 237.14 75.7626H238.225C238.24 76.0144 238.34 76.2085 238.523 76.3449C238.707 76.4813 238.951 76.5495 239.254 76.5495C239.547 76.5495 239.771 76.4958 239.925 76.3885C240.078 76.2812 240.154 76.1412 240.154 75.9685Z" fill="#00A651"/>
</svg>
