<svg width="60" height="60" viewBox="0 0 60 60" fill="none" xmlns="http://www.w3.org/2000/svg">
<path d="M52.5031 29.9999C53.373 28.9793 54.1757 27.9568 54.903 26.9383C57.9304 22.6995 59.5308 18.735 59.5309 15.4736C59.5309 12.9578 58.5549 10.8866 56.7082 9.48426H56.7081C53.4371 7.00129 47.689 6.73949 40.4898 8.73379C37.6467 3.78332 33.9511 1.07324 30.0008 1.07324C26.0506 1.07324 22.3526 3.78332 19.509 8.73379C12.3102 6.73949 6.56311 7.00141 3.29357 9.48426C1.44623 10.8864 0.46959 12.9572 0.469238 15.4728C0.46877 18.734 2.06885 22.6984 5.09662 26.9378C5.824 27.9563 6.62674 28.9791 7.49686 29.9999C6.62709 31.0204 5.82459 32.043 5.09732 33.0611C2.06979 37.3002 0.469356 41.265 0.469238 44.5267C0.469238 47.0433 1.44576 49.1153 3.29346 50.5186C5.11326 51.9005 7.69947 52.5946 10.8772 52.5946C13.4091 52.5946 16.3173 52.1526 19.5099 51.2677C22.3534 56.217 26.0497 58.9264 30.0008 58.9264C33.9519 58.9264 37.6459 56.217 40.489 51.2677C43.6821 52.1527 46.59 52.5946 49.1224 52.5946C52.3001 52.5946 54.8877 51.9004 56.708 50.5188L56.7083 50.5185C58.5553 49.1148 59.5314 47.0426 59.5309 44.5257C59.5302 41.2638 57.9297 37.2991 54.9021 33.0605C54.175 32.0425 53.3726 31.0202 52.503 29.9998L52.5031 29.9999ZM55.8584 10.6034C57.3631 11.746 58.126 13.3846 58.1258 15.4736C58.1257 19.2423 55.7199 24.03 51.5683 28.9329C49.6255 26.7746 47.3868 24.6354 44.9127 22.5757C44.2595 17.8874 42.987 13.5753 41.174 10.0033C44.1004 9.2166 46.7847 8.82379 49.1103 8.82379C51.9758 8.82379 54.2978 9.41899 55.8583 10.6034H55.8584ZM39.797 49.6048C37.1097 48.7915 34.3389 47.7009 31.5603 46.3721C35.2067 44.4466 38.8254 42.1415 42.2515 39.5402C42.5997 39.2757 42.9457 39.0082 43.2893 38.7379C42.5937 42.7915 41.4103 46.5026 39.797 49.6048ZM41.4018 38.421C37.7512 41.1929 33.8815 43.6213 29.9992 45.6004C26.117 43.6213 22.2472 41.1929 18.5966 38.4211C17.8549 37.8578 17.1237 37.2806 16.4036 36.6898C16.1271 34.5284 15.9843 32.2867 15.9843 30.0017C15.9843 27.7166 16.1271 25.4725 16.4038 23.31C17.1239 22.7194 17.8549 22.1423 18.5965 21.5789C22.247 18.8072 26.1168 16.379 29.9991 14.4002C33.8814 16.379 37.7512 18.8072 41.4017 21.5789C42.1433 22.1421 42.8744 22.7191 43.5945 23.3097C43.8712 25.4724 44.014 27.7154 44.014 30.0017C44.014 32.288 43.8712 34.5285 43.5947 36.69C42.8746 37.2807 42.1434 37.8578 41.4017 38.421H41.4018ZM20.2019 49.6048C18.5884 46.5027 17.4049 42.7916 16.7092 38.7378C17.0513 39.0068 17.3971 39.2745 17.7469 39.5402C21.173 42.1415 24.7917 44.4466 28.4383 46.3721C25.6597 47.7009 22.8891 48.7915 20.2019 49.6048ZM14.8416 35.3707C12.8088 33.6032 10.9715 31.7984 9.36131 30.0002C10.9716 28.2017 12.809 26.3966 14.8418 24.6291C14.6687 26.3828 14.5792 28.1793 14.5792 30.0017C14.5792 31.8241 14.6686 33.6181 14.8416 35.3707ZM20.2014 10.3966C22.8888 11.2096 25.6595 12.2999 28.438 13.6285C24.7915 15.5538 21.1729 17.8586 17.7469 20.4599C17.3989 20.7244 17.0531 20.9917 16.7096 21.262C17.4053 17.2087 18.5884 13.4983 20.2014 10.3966ZM39.7976 10.3966C41.4103 13.4983 42.5933 17.2087 43.289 21.2618C42.9454 20.9916 42.5996 20.7242 42.2515 20.4598C38.8255 17.8586 35.207 15.5538 31.5605 13.6285C34.3391 12.2999 37.11 11.2095 39.7975 10.3966H39.7976ZM45.1567 24.6284C47.1901 26.3961 49.028 28.2013 50.6386 30C49.028 31.7986 47.1903 33.6037 45.1569 35.3713C45.3299 33.6186 45.4193 31.823 45.4193 30.0017C45.4193 28.1804 45.3298 26.3823 45.1567 24.6284ZM30.0008 2.47844C33.3505 2.47844 36.5474 4.83285 39.1001 9.14137C36.128 10.0601 33.0622 11.3057 29.9992 12.8282C26.9364 11.3057 23.8708 10.0601 20.8988 9.14137C23.4519 4.83274 26.6497 2.47844 30.0008 2.47844ZM1.87443 15.4729C1.87467 13.3843 2.63803 11.746 4.1433 10.6034C5.7033 9.41875 8.02385 8.82379 10.8893 8.82379C13.2143 8.82379 15.8988 9.21672 18.8248 10.0033C17.0115 13.5753 15.7389 17.8875 15.0857 22.5762C12.6122 24.6359 10.3739 26.7747 8.43154 28.9329C4.27959 24.0292 1.87385 19.2413 1.87432 15.4729H1.87443ZM4.14342 49.3997C2.63779 48.2562 1.87443 46.6166 1.87443 44.5268C1.87455 40.7582 4.28029 35.9704 8.43166 31.067C10.3739 33.225 12.612 35.3637 15.0853 37.4233C15.7385 42.1125 17.0115 46.4256 18.8254 49.9981C12.2929 51.7552 6.96881 51.5454 4.1433 49.3996L4.14342 49.3997ZM30.001 57.5214C26.6502 57.5214 23.4526 55.1675 20.8995 50.8599C23.8712 49.9409 26.9366 48.695 29.9993 47.1723C33.0621 48.6951 36.1276 49.9409 39.0995 50.86C36.5469 55.1676 33.3503 57.5215 30.0008 57.5215L30.001 57.5214ZM55.8583 49.3998C53.031 51.5454 47.7059 51.7551 41.1734 49.9982C42.987 46.4256 44.2599 42.1128 44.9131 37.4239C47.387 35.3643 49.6255 33.2254 51.5683 31.0672C55.7193 35.9697 58.1251 40.7573 58.1258 44.5263C58.1263 46.6164 57.3634 48.2562 55.8583 49.4V49.3998ZM41.9959 27.861C42.0039 27.8463 42.0128 27.8322 42.0197 27.8167C42.0251 27.8046 42.0284 27.792 42.0331 27.7798C42.0379 27.767 42.0428 27.7545 42.0469 27.7416C42.0577 27.7075 42.066 27.6729 42.0714 27.6381C42.0721 27.6333 42.0737 27.6286 42.0743 27.6237C42.0797 27.5836 42.0808 27.5433 42.0792 27.5032C42.0788 27.492 42.0774 27.481 42.0764 27.4697C42.0738 27.4396 42.0693 27.4097 42.0628 27.3802C42.0603 27.3684 42.0579 27.3566 42.0547 27.3448C42.0446 27.3066 42.0313 27.2693 42.0149 27.2334L42.0105 27.2247C41.9934 27.19 41.9735 27.1567 41.9509 27.1253C41.9437 27.115 41.9357 27.1053 41.9277 27.0953C41.9188 27.0841 41.9112 27.0722 41.9016 27.0614L37.1978 21.8096C37.1319 21.736 37.0512 21.6771 36.9611 21.6369C36.8709 21.5966 36.7732 21.5758 36.6744 21.5758H23.324C23.2252 21.5758 23.1275 21.5966 23.0374 21.6369C22.9472 21.6772 22.8665 21.736 22.8006 21.8096L18.0968 27.0614C18.0872 27.0721 18.0797 27.0839 18.0709 27.0951C18.0628 27.1052 18.0547 27.1151 18.0474 27.1255C18.0251 27.1571 18.0049 27.1898 17.9884 27.224C17.9867 27.2275 17.9848 27.231 17.9831 27.2346C17.967 27.2701 17.9538 27.3069 17.9439 27.3446C17.9406 27.3565 17.9383 27.3684 17.9357 27.3804C17.9293 27.4098 17.9248 27.4395 17.9222 27.4694C17.9213 27.4807 17.9197 27.492 17.9194 27.5034C17.9179 27.5434 17.9189 27.5835 17.9243 27.6236C17.925 27.6288 17.9267 27.6338 17.9275 27.6391C17.9329 27.6735 17.9411 27.7077 17.9517 27.7415C17.9558 27.7546 17.9609 27.7673 17.9658 27.7802C17.9705 27.7923 17.9737 27.8048 17.979 27.8168C17.986 27.8322 17.9949 27.8461 18.0027 27.8609C18.0086 27.8718 18.0137 27.8828 18.0203 27.8935C18.0421 27.9295 18.0665 27.9633 18.0939 27.9945C18.0952 27.9959 18.0959 27.9975 18.0972 27.9989L29.4778 40.7084C29.4809 40.7118 29.4844 40.7147 29.4876 40.7181C29.4925 40.7234 29.4971 40.7291 29.5021 40.7343L29.5029 40.735C29.5084 40.7405 29.5145 40.7456 29.5203 40.7509C29.5263 40.7567 29.5326 40.7624 29.5388 40.7679C29.5507 40.7784 29.563 40.7882 29.5757 40.7979C29.5779 40.7997 29.58 40.8017 29.5824 40.8033C29.584 40.8045 29.5854 40.806 29.5871 40.8072C29.5896 40.8091 29.5923 40.8106 29.5949 40.8125C29.6078 40.8216 29.6212 40.8302 29.6347 40.8384C29.6418 40.8427 29.6487 40.8471 29.656 40.8513C29.6626 40.855 29.6692 40.8586 29.676 40.8622C29.6803 40.8644 29.6847 40.8663 29.6891 40.8684L29.696 40.8716C29.7046 40.8757 29.7129 40.8801 29.7215 40.8838C29.7338 40.8892 29.7465 40.8938 29.7593 40.8985C29.7652 40.9006 29.7709 40.9032 29.7768 40.9053C29.7788 40.906 29.7806 40.9069 29.7825 40.9075C29.785 40.9083 29.7876 40.9088 29.7901 40.9096C29.7927 40.9104 29.7952 40.9116 29.7979 40.9124C29.8028 40.9139 29.8077 40.9143 29.8126 40.9157C29.8333 40.9214 29.8541 40.9264 29.8753 40.9302C29.8819 40.9314 29.8883 40.933 29.8949 40.9341C29.9004 40.9349 29.906 40.9353 29.9115 40.9361C29.9377 40.9395 29.9642 40.9415 29.9908 40.942L29.995 40.9423C29.9969 40.9423 29.9987 40.9428 30.0007 40.9428H30.0012C30.0031 40.9428 30.0049 40.9423 30.0069 40.9423C30.0083 40.9423 30.0097 40.9421 30.011 40.942C30.0378 40.9416 30.0641 40.9395 30.0904 40.9361C30.096 40.9354 30.1016 40.935 30.1072 40.9341C30.1138 40.933 30.1203 40.9314 30.1268 40.9302C30.1479 40.9264 30.1688 40.9214 30.1893 40.9157C30.1943 40.9143 30.1992 40.9138 30.2043 40.9123C30.207 40.9115 30.2094 40.9103 30.2121 40.9095C30.2146 40.9088 30.2171 40.9083 30.2194 40.9075L30.2254 40.9052C30.2311 40.9033 30.2365 40.9007 30.2422 40.8986C30.2553 40.8938 30.2683 40.8891 30.2809 40.8837C30.2894 40.8801 30.2974 40.8759 30.3056 40.8719L30.3134 40.8681C30.3175 40.866 30.3218 40.8643 30.3259 40.8622C30.3328 40.8585 30.3396 40.8548 30.3464 40.8509C30.3533 40.847 30.3599 40.8427 30.3667 40.8386C30.3806 40.83 30.3945 40.8214 30.4076 40.812C30.4101 40.8102 30.4126 40.8088 30.415 40.8071C30.4166 40.8059 30.4181 40.8044 30.4198 40.8031L30.4256 40.7983C30.4387 40.7883 30.4514 40.7781 30.4637 40.7673C30.4697 40.7621 30.4755 40.7567 30.4812 40.7513C30.4873 40.7455 30.4937 40.7403 30.4996 40.7344H30.4997C30.5051 40.729 30.5098 40.723 30.5149 40.7175C30.5179 40.7144 30.5212 40.7116 30.5241 40.7083L41.9014 27.9988C41.9025 27.9975 41.9032 27.9959 41.9044 27.9946C41.9319 27.9634 41.9563 27.9295 41.9782 27.8934C41.9846 27.8828 41.9897 27.872 41.9955 27.8613L41.9959 27.861ZM32.028 22.9807L32.9501 26.8275H27.0484L27.9706 22.9807H32.028ZM32.8948 28.2326L30.0006 37.8113L27.104 28.2326H32.8948ZM25.636 28.2326L28.4118 37.4116L20.1925 28.2326H25.636ZM34.3627 28.2326H39.8064L31.5892 37.4119L34.3627 28.2326ZM39.8058 26.8275H34.395L33.4729 22.9807H36.3606L39.8058 26.8275ZM23.6379 22.9807H26.5256L25.6035 26.8275H20.1927L23.6379 22.9807Z" fill="white"/>
</svg>
