<svg width="56" height="56" viewBox="0 0 56 56" fill="none" xmlns="http://www.w3.org/2000/svg">
<path d="M41.5686 29.4C41.2471 32.5163 39.8663 35.4279 37.6567 37.6488C35.447 39.8696 32.5424 41.2652 29.4278 41.6024C29.3651 41.6017 29.3029 41.6134 29.2448 41.6371C29.1867 41.6608 29.1339 41.6958 29.0895 41.7401C29.0452 41.7845 29.0102 41.8373 28.9865 41.8954C28.9629 41.9535 28.9511 42.0157 28.9518 42.0784V52.2648C28.9518 52.5173 28.8515 52.7594 28.673 52.938C28.4944 53.1165 28.2523 53.2168 27.9998 53.2168C27.7473 53.2168 27.5052 53.1165 27.3266 52.938C27.1481 52.7594 27.0478 52.5173 27.0478 52.2648V48.5688C27.0387 48.4456 26.9857 48.3297 26.8983 48.2423C26.8109 48.1549 26.695 48.1019 26.5718 48.0928C22.3377 47.7502 18.3215 46.0729 15.1013 43.3025C11.8811 40.5321 9.6229 36.8114 8.6518 32.676C8.61566 32.5535 8.60454 32.4249 8.61911 32.298C8.63369 32.1711 8.67365 32.0484 8.73663 31.9373C8.79961 31.8261 8.88432 31.7288 8.9857 31.6511C9.08708 31.5734 9.20307 31.5168 9.32676 31.4849C9.45044 31.4529 9.5793 31.4462 9.70564 31.4651C9.83198 31.484 9.95323 31.5281 10.0622 31.5948C10.1711 31.6615 10.2655 31.7495 10.3397 31.8535C10.4139 31.9575 10.4665 32.0753 10.4942 32.2C11.3575 35.912 13.3706 39.2568 16.2465 41.7576C19.1223 44.2584 22.7142 45.7876 26.5102 46.1272C26.6334 46.1888 26.751 46.1272 26.8686 46.0096C26.9308 45.9745 26.981 45.9216 27.013 45.8578C27.0449 45.7939 27.057 45.722 27.0478 45.6512V42.0784C27.0486 42.0157 27.0368 41.9535 27.0131 41.8954C26.9894 41.8373 26.9544 41.7845 26.9101 41.7401C26.8657 41.6958 26.8129 41.6608 26.7548 41.6371C26.6968 41.6134 26.6345 41.6017 26.5718 41.6024C23.472 41.2571 20.5795 39.8759 18.3622 37.6824C16.1454 35.4544 14.7614 32.5323 14.4422 29.4056C14.424 29.2912 14.3666 29.1867 14.2797 29.11C14.1929 29.0334 14.082 28.9894 13.9662 28.9856H3.7798C3.51989 28.9856 3.27063 28.8824 3.08684 28.6986C2.90305 28.5148 2.7998 28.2655 2.7998 28.0056C2.7998 27.7457 2.90305 27.4964 3.08684 27.3126C3.27063 27.1289 3.51989 27.0256 3.7798 27.0256H7.6494C7.76487 27.0208 7.87518 26.9764 7.96184 26.9C8.0485 26.8235 8.10624 26.7196 8.1254 26.6056C8.37952 22.3778 9.95036 18.3356 12.6177 15.0456C15.285 11.7556 18.9151 9.38283 22.999 8.26C23.2463 8.21306 23.5022 8.26252 23.7142 8.39825C23.9262 8.53398 24.0783 8.74568 24.1391 8.98993C24.2 9.23418 24.1651 9.49248 24.0417 9.71183C23.9182 9.93118 23.7154 10.095 23.475 10.1696C19.8214 11.1548 16.5666 13.2564 14.1651 16.1809C11.7637 19.1055 10.3354 22.7069 10.0798 26.4824C10.064 26.552 10.0646 26.6242 10.0816 26.6935C10.0986 26.7628 10.1315 26.8271 10.1777 26.8815C10.2239 26.9358 10.2821 26.9787 10.3478 27.0066C10.4134 27.0345 10.4846 27.0468 10.5558 27.0424H13.9438C14.0596 27.0386 14.1705 26.9946 14.2573 26.918C14.3442 26.8413 14.4016 26.7368 14.4198 26.6224C14.7369 23.5004 16.1172 20.5822 18.3295 18.3566C20.5418 16.1311 23.4518 14.7334 26.5718 14.3976C26.6345 14.3984 26.6968 14.3866 26.7548 14.3629C26.8129 14.3392 26.8657 14.3042 26.9101 14.2599C26.9544 14.2155 26.9894 14.1627 27.0131 14.1046C27.0368 14.0466 27.0486 13.9843 27.0478 13.9216V3.7352C27.0478 3.48272 27.1481 3.24057 27.3266 3.06204C27.5052 2.8835 27.7473 2.7832 27.9998 2.7832C28.2523 2.7832 28.4944 2.8835 28.673 3.06204C28.8515 3.24057 28.9518 3.48272 28.9518 3.7352V15.288C28.9582 15.4228 28.9364 15.5575 28.8877 15.6833C28.839 15.8092 28.7646 15.9235 28.6691 16.0189C28.5737 16.1144 28.4594 16.1888 28.3335 16.2375C28.2077 16.2862 28.073 16.308 27.9382 16.3016C17.5838 16.3016 12.4094 28.98 19.7286 36.3048C27.0478 43.6296 39.5414 38.388 39.7206 28C39.7191 27.8746 39.7427 27.7501 39.79 27.6339C39.8373 27.5177 39.9074 27.4122 39.9961 27.3235C40.0848 27.2348 40.1903 27.1647 40.3065 27.1174C40.4227 27.0701 40.5472 27.0465 40.6726 27.048H52.2198C52.4797 27.048 52.729 27.1513 52.9128 27.335C53.0966 27.5188 53.1998 27.7681 53.1998 28.028C53.1998 28.2879 53.0966 28.5372 52.9128 28.721C52.729 28.9048 52.4797 29.008 52.2198 29.008H48.4118C48.2936 29.0033 48.1782 29.0443 48.0895 29.1225C48.0009 29.2007 47.9458 29.3102 47.9358 29.428C47.6268 33.6822 45.9815 37.7299 43.235 40.9934C40.4885 44.2568 36.7811 46.5691 32.6422 47.6C31.3934 47.8968 30.9622 45.9928 32.2222 45.696C35.9185 44.777 39.2333 42.7215 41.6996 39.8191C44.166 36.9167 45.6597 33.3137 45.9702 29.5176C45.986 29.448 45.9854 29.3758 45.9684 29.3065C45.9514 29.2372 45.9185 29.1729 45.8723 29.1185C45.8261 29.0642 45.7679 29.0214 45.7023 28.9934C45.6366 28.9655 45.5654 28.9532 45.4942 28.9576H42.0446C41.9288 28.9614 41.818 29.0054 41.7311 29.082C41.6442 29.1587 41.5868 29.2632 41.5686 29.3776V29.4ZM49.2798 13.5632L42.3974 20.4064C42.2292 20.5889 41.9958 20.6976 41.7478 20.7088H37.1614C37.0362 20.7198 36.9153 20.7601 36.8086 20.8264L28.655 29.0416C28.4717 29.2129 28.229 29.3064 27.9782 29.3024C27.7273 29.2984 27.4877 29.1972 27.31 29.0201C27.1322 28.8431 27.03 28.604 27.025 28.3531C27.02 28.1023 27.1125 27.8592 27.283 27.6752L35.4366 19.4544C35.4915 19.4269 35.5374 19.3844 35.5691 19.3319C35.6008 19.2794 35.617 19.219 35.6158 19.1576V14.56C35.6146 14.4276 35.6404 14.2962 35.6914 14.174C35.7424 14.0518 35.8176 13.9411 35.9126 13.8488L42.7558 7.0112C42.8879 6.86835 43.06 6.76859 43.2497 6.72494C43.4393 6.68129 43.6377 6.69576 43.819 6.76646C44.0003 6.83717 44.1561 6.96084 44.2661 7.12136C44.3761 7.28187 44.4353 7.4718 44.4358 7.6664V11.4184C44.4437 11.542 44.4964 11.6586 44.584 11.7462C44.6716 11.8338 44.7882 11.8865 44.9118 11.8944H48.6022C48.799 11.8892 48.9929 11.9435 49.1584 12.0501C49.324 12.1567 49.4536 12.3107 49.5304 12.492C49.6071 12.6734 49.6275 12.8736 49.5888 13.0667C49.5501 13.2597 49.4541 13.4367 49.3134 13.5744L49.2798 13.5632ZM41.4398 18.6032L45.427 14.616C45.4963 14.552 45.5452 14.4691 45.5678 14.3775C45.5904 14.2859 45.5855 14.1897 45.5539 14.1009C45.5223 14.012 45.4653 13.9344 45.39 13.8776C45.3147 13.8209 45.2243 13.7875 45.1302 13.7816H43.4502C43.1901 13.7877 42.9381 13.6913 42.7485 13.5132C42.5588 13.3351 42.4468 13.0896 42.4366 12.8296V11.2C42.4361 11.1036 42.4074 11.0094 42.3539 10.9291C42.3004 10.8489 42.2246 10.7861 42.1357 10.7485C42.0469 10.7109 41.949 10.7003 41.8542 10.7178C41.7593 10.7354 41.6717 10.7803 41.6022 10.8472L37.6822 14.8344C37.5776 14.9256 37.5132 15.0544 37.503 15.1928V18.2896C37.5023 18.3523 37.514 18.4146 37.5377 18.4726C37.5614 18.5307 37.5964 18.5835 37.6408 18.6279C37.6851 18.6722 37.7379 18.7072 37.796 18.7309C37.8541 18.7546 37.9163 18.7664 37.979 18.7656H41.1318C41.255 18.7656 41.3726 18.7656 41.4286 18.6424L41.4398 18.6032ZM36.0862 28.0112C36.0884 29.6124 35.6156 31.1782 34.7275 32.5105C33.8395 33.8428 32.5761 34.8817 31.0974 35.4958C29.6186 36.1098 27.9909 36.2713 26.4203 35.9599C24.8498 35.6485 23.4069 34.8781 22.2743 33.7463C21.1417 32.6145 20.3703 31.1721 20.0578 29.6018C19.7453 28.0314 19.9057 26.4036 20.5187 24.9244C21.1317 23.4453 22.1697 22.1812 23.5014 21.2922C24.8331 20.4032 26.3986 19.9293 27.9998 19.9304C28.2404 19.9488 28.4652 20.0574 28.6291 20.2345C28.7931 20.4115 28.8842 20.6439 28.8842 20.8852C28.8842 21.1265 28.7931 21.3589 28.6291 21.5359C28.4652 21.713 28.2404 21.8216 27.9998 21.84C26.3661 21.84 24.7993 22.489 23.644 23.6442C22.4888 24.7994 21.8398 26.3663 21.8398 28C21.8398 29.6337 22.4888 31.2006 23.644 32.3558C24.7993 33.511 26.3661 34.16 27.9998 34.16C31.5726 34.16 33.9526 31.4832 34.1262 28C34.1206 27.8649 34.1429 27.7301 34.1916 27.604C34.2404 27.4778 34.3146 27.3631 34.4096 27.2668C34.5046 27.1706 34.6184 27.095 34.7439 27.0446C34.8693 26.9942 35.0039 26.9702 35.139 26.9741C35.2742 26.9779 35.4071 27.0095 35.5296 27.067C35.652 27.1244 35.7613 27.2064 35.8506 27.3079C35.94 27.4094 36.0075 27.5282 36.049 27.6569C36.0905 27.7856 36.1051 27.9214 36.0918 28.056L36.0862 28.0112Z" fill="#00A651"/>
</svg>
